<?xml version="1.0" standalone="no"?>
<!DOCTYPE svg PUBLIC "-//W3C//DTD SVG 20010904//EN"
 "http://www.w3.org/TR/2001/REC-SVG-20010904/DTD/svg10.dtd">
<svg version="1.0" xmlns="http://www.w3.org/2000/svg"
 width="142.000000pt" height="142.000000pt" viewBox="0 0 142.000000 142.000000"
 preserveAspectRatio="xMidYMid meet">
<metadata>
Created by potrace 1.11, written by Peter Selinger 2001-2013
</metadata>
<g transform="translate(0.000000,142.000000) scale(0.100000,-0.100000)"
fill="#000000" stroke="none">
<path d="M0 740 l0 -320 26 4 c19 4 27 0 33 -17 5 -12 6 -28 4 -34 -4 -10 23
-13 114 -13 l119 0 -1 115 c-1 105 1 115 18 115 11 0 18 -7 16 -17 -4 -40 1
-43 55 -43 l53 0 -1 -42 c-2 -51 8 -68 41 -68 21 0 24 -4 21 -27 l-3 -28 111
-3 112 -3 -2 103 c-2 123 3 139 41 129 23 -6 27 -12 25 -34 -2 -19 1 -27 11
-27 8 0 17 -6 20 -14 3 -8 18 -16 34 -18 22 -2 28 -8 27 -28 0 -32 15 -48 44
-45 26 3 42 -19 35 -46 -5 -18 5 -19 199 -19 l205 0 -1 27 c-2 36 11 53 40 53
23 0 24 3 24 63 0 60 -1 64 -22 63 -19 -1 -23 4 -23 29 l0 30 -110 0 -110 0 1
-38 c1 -20 -2 -37 -5 -38 -39 -5 -61 -3 -61 7 0 7 -13 11 -32 10 -29 -1 -33 2
-31 22 2 12 -1 22 -5 22 -5 0 -8 41 -8 92 l1 92 32 1 c40 1 48 9 48 48 0 27 4
32 25 32 14 0 28 -4 32 -9 3 -5 19 -9 35 -10 22 -1 28 -6 28 -23 0 -12 4 -25
8 -30 5 -4 51 -8 103 -8 l94 0 0 62 c0 56 -2 62 -22 65 -18 2 -23 9 -22 31 1
17 -4 27 -13 27 -8 0 -11 5 -7 11 5 8 -6 10 -35 7 -41 -3 -41 -3 -41 29 l0 33
-195 0 -195 0 0 -40 c0 -37 -2 -40 -27 -39 -51 3 -53 1 -53 -46 l0 -45 -44 0
c-49 0 -52 4 -51 68 0 37 -2 43 -20 41 -36 -2 -41 1 -41 29 l1 27 -107 3 c-60
1 -108 -1 -109 -5 -1 -4 -2 -21 -3 -38 -1 -28 -4 -30 -38 -30 -38 0 -44 -8
-39 -52 1 -7 -9 -13 -22 -13 -20 0 -24 5 -25 32 -1 37 -13 46 -58 44 -34 -1
-39 5 -35 47 2 15 -9 17 -108 17 l-111 0 0 -320z"/>
</g>
</svg>
